<svg width="50" height="50" viewBox="0 0 50 50" fill="none" xmlns="http://www.w3.org/2000/svg">
    <g id="wordpress">
        <path d="M45 1.54019C33.1896 1.54019 21.8629 6.23186 13.5117 14.5831C5.16042 22.9343 0.46875 34.261 0.46875 46.0714C0.46875 57.8819 5.16042 69.2086 13.5117 77.5598C21.8629 85.911 33.1896 90.6027 45 90.6027C56.8104 90.6027 68.1371 85.911 76.4883 77.5598C84.8396 69.2086 89.5312 57.8819 89.5312 46.0714C89.5312 34.261 84.8396 22.9343 76.4883 14.5831C68.1371 6.23186 56.8104 1.54019 45 1.54019Z"
              fill="white"/>
        <path d="M9.28796 46.0715C9.28796 60.2143 17.5022 72.4241 29.4174 78.2143L12.3772 31.5357C10.3973 35.9799 9.28796 40.884 9.28796 46.0715ZM69.1161 44.2724C69.1161 39.8594 66.7433 36.7947 65.3884 34.4241C63.5737 31.4576 61.8705 28.9844 61.8705 26.0491C61.8705 22.7791 65.154 19.7099 68.6585 19.7099C68.817 19.7099 68.9598 19.7232 69.1183 19.7277C62.7701 13.8929 54.3036 10.3572 45.0022 10.3572C32.9732 10.3572 22.3393 16.3081 15.8683 25.4219C16.3772 25.5871 16.5536 25.509 17.2322 25.509C20.9576 25.509 26.75 25.0625 26.75 25.0625C28.6697 24.9353 28.904 27.7679 26.971 28C26.971 28 25.0424 28.2344 22.8906 28.3393L36.1295 68.0224L43.942 44.5826L38.1317 28.404C36.2098 28.3014 34.3839 28.0648 34.3839 28.0648C32.4598 27.9398 32.683 24.9956 34.6027 25.1273C34.6027 25.1273 40.5134 25.5737 44.0156 25.5737C47.7545 25.5737 53.5335 25.1273 53.5335 25.1273C55.4554 25 55.6875 27.8326 53.7656 28.0648C53.7656 28.0648 51.8237 28.2991 49.6763 28.404L62.8259 67.7121L66.3951 55.8237C68.2121 51.1808 69.1161 47.3416 69.1161 44.2724ZM45.6272 49.1875L34.913 80.3304C38.1183 81.2813 41.4978 81.7857 45.0022 81.7857C49.1563 81.7857 53.1473 81.0625 56.8683 79.7612C56.779 79.6027 56.6786 79.442 56.6049 79.2701L45.6272 49.1875ZM76.346 28.9241C76.5045 30.0625 76.5871 31.288 76.5871 32.596C76.5871 36.2299 75.904 40.2991 73.8661 45.4018L62.9621 76.9532C73.5826 70.7657 80.7143 59.2456 80.7143 46.0715C80.7143 39.8639 79.1272 34.0268 76.346 28.9241Z"
              fill="#01579B"/>
        <path d="M0.35714 46.0714C0.35714 70.6786 20.3795 90.7143 44.9978 90.7143C69.6205 90.7143 89.6429 70.6786 89.6429 46.0714C89.6429 21.4643 69.6205 1.42856 45 1.42856C20.3795 1.42856 0.35714 21.4643 0.35714 46.0714ZM4.81026 46.0714C4.81026 23.9196 22.8326 5.89508 44.9978 5.89508C67.1629 5.89508 85.1897 23.9196 85.1897 46.0714C85.1897 68.2232 67.1629 86.2522 45 86.2522C22.8393 86.2522 4.81026 68.2232 4.81026 46.0714Z"
              fill="#01579B"/>
    </g>

    <g id="webflow">
        <g clip-path="url(#clip0_5891_152)">
            <path d="M45 89.6428C69.6556 89.6428 89.6429 69.6555 89.6429 45C89.6429 20.3444 69.6556 0.357117 45 0.357117C20.3444 0.357117 0.357155 20.3444 0.357155 45C0.357155 69.6555 20.3444 89.6428 45 89.6428Z"
                  fill="#1976D2"/>
            <path d="M58.6161 39.2634C58.6161 39.2634 54.7545 51.3616 54.4643 52.3884C54.3527 51.3616 51.5402 29.6205 51.5402 29.6205C44.9554 29.6205 41.4509 34.2857 39.5982 39.2634C39.5982 39.2634 34.9107 51.4062 34.5313 52.433C34.5089 51.4732 33.817 39.3973 33.817 39.3973C33.4152 33.3259 27.8795 29.6428 23.3929 29.6428L28.7947 62.5893C35.692 62.5669 39.3973 57.9018 41.3393 52.9464C41.3393 52.9464 45.4688 42.2321 45.6473 41.7411C45.692 42.2098 48.6161 62.5893 48.6161 62.5893C55.5134 62.5893 59.2411 58.2143 61.25 53.4375L70.8929 29.6205C64.0625 29.6205 60.4688 34.2857 58.6161 39.2634Z"
                  fill="white"/>
        </g>
        <defs>
            <clipPath id="clip0_5891_152">
                <rect width="90" height="90" fill="white"/>
            </clipPath>
        </defs>
    </g>

    <g id="react">
            <path d="M45.4499 56.9484C69.5391 56.9484 89.0673 49.5282 89.0673 40.375C89.0673 31.2217 69.5391 23.8016 45.4499 23.8016C21.3607 23.8016 1.83252 31.2217 1.83252 40.375C1.83252 49.5282 21.3607 56.9484 45.4499 56.9484Z" stroke="#61DAFB" stroke-width="3"/>
            <path d="M31.0272 48.6617C43.0718 69.4228 59.2932 82.5428 67.2586 77.9662C75.224 73.3896 71.9172 52.8493 59.8726 32.0883C47.828 11.3272 31.6067 -1.79286 23.6412 2.78377C15.6758 7.3604 18.9826 27.9006 31.0272 48.6617Z" stroke="#61DAFB" stroke-width="3"/>
            <path d="M31.0272 32.0883C18.9826 52.8493 15.6758 73.3896 23.6412 77.9662C31.6067 82.5428 47.828 69.4227 59.8726 48.6617C71.9172 27.9006 75.2241 7.3604 67.2586 2.78377C59.2932 -1.79286 43.0718 11.3272 31.0272 32.0883Z" stroke="#61DAFB" stroke-width="3"/>
    </g>

    <g id="figma">
            <g clip-path="url(#clip0_5892_204)">
                <path d="M13.7458 85C21.3355 85 27.4916 78.658 27.4916 70.8391V56.6782H13.7458C6.15609 56.6782 0 63.0202 0 70.8391C0 78.658 6.15609 85 13.7458 85Z" fill="#0ACF83"/>
                <path d="M0 42.5C0 34.6811 6.15609 28.3391 13.7458 28.3391H27.4916V56.6782H13.7458C6.15609 56.6609 0 50.3189 0 42.5Z" fill="#A259FF"/>
                <path d="M0 14.1609C0 6.34199 6.15609 0 13.7458 0H27.4916V28.3391H13.7458C6.15609 28.3391 0 21.9798 0 14.1609Z" fill="#F24E1E"/>
                <path d="M27.5084 0H41.2542C48.8439 0 55 6.34199 55 14.1609C55 21.9798 48.8439 28.3217 41.2542 28.3217H27.5084V0V0Z" fill="#FF7262"/>
                <path d="M55 42.5C55 50.3189 48.8439 56.6609 41.2542 56.6609C33.6645 56.6609 27.5084 50.3189 27.5084 42.5C27.5084 34.6811 33.6645 28.3391 41.2542 28.3391C48.8439 28.3391 55 34.6811 55 42.5Z" fill="#1ABCFE"/>
            <defs>
                <clipPath id="clip0_5892_204">
                    <rect width="55" height="85" fill="white"/>
                </clipPath>
            </defs>
        </g>
        <defs>
            <clipPath id="clip0_6_7784">
                <rect width="58.2524" height="88.9906" fill="white"/>
            </clipPath>
        </defs>
    </g>

    <g id="html">
        <path d="M12.4805 80.8594L5.27344 0H84.5508L77.3438 80.8594L44.8242 90" fill="#E34F26"/>
        <path d="M45 82.9688L71.1914 75.7617L77.3438 6.50391H45" fill="#EF652A"/>
        <path d="M45 36.5625H31.8164L30.9375 26.3672H45V16.5234H44.8242H20.0391L20.2148 19.1602L22.6758 46.582H45V36.5625ZM45 62.4023H44.8242L33.75 59.4141L33.0469 51.5039H27.7734H23.2031L24.4336 67.1484L44.8242 72.7734H45V62.4023Z"
              fill="#EBEBEB"/>
        <path d="M44.8242 36.5625V46.582H57.1289L55.8984 59.4141L44.8242 62.4023V72.7734L65.2148 67.1484L65.3906 65.3906L67.6758 39.1992L68.0273 36.5625H65.2148H44.8242ZM44.8242 16.5234V22.6758V26.3672H68.9062L69.082 24.2578L69.6094 19.1602L69.7852 16.5234H44.8242Z"
              fill="white"/>
    </g>

    <g id="css">
        <g clip-path="url(#clip0_5891_178)">
            <path d="M79.3222 0.0672607L72.0958 81.0219L39.6126 90.0273L7.21881 81.0346L0 0.0672607H79.3222Z"
                  fill="#264DE4"/>
            <path d="M65.9091 75.867L72.0846 6.68756H39.6611V83.144L65.9091 75.867Z" fill="#2965F1"/>
            <path d="M16.549 36.7172L17.439 46.6474H39.6611V36.7172H16.549Z" fill="#EBEBEB"/>
            <path d="M39.6611 16.618H39.6268H14.7606L15.6633 26.5484H39.6611V16.618Z" fill="#EBEBEB"/>
            <path d="M39.6611 72.8389V62.5073L39.6176 62.5188L28.5582 59.5326L27.8512 51.6127H22.4771H17.8827L19.2739 67.2047L39.6154 72.8516L39.6611 72.8389Z"
                  fill="#EBEBEB"/>
            <path d="M51.8549 46.6474L50.7023 59.5263L39.6268 62.5156V72.8469L59.9845 67.2047L60.1339 65.527L62.4674 39.3838L62.7097 36.7172L64.5024 16.618H39.6268V26.5484H53.6196L52.7161 36.7172H39.6268V46.6474H51.8549Z"
                  fill="white"/>
        </g>
        <defs>
            <clipPath id="clip0_5891_178">
                <rect width="79.3394" height="90" fill="white"/>
            </clipPath>
        </defs>
    </g>

    <g id="javascript">
        <g clip-path="url(#clip0_5891_190)">
            <path d="M0.266113 0.0662842L0.278586 1.06407C0.285458 1.61285 1.87536 19.7826 3.81175 41.4411L7.33244 80.8204L23.1563 85.2508C31.8593 87.6875 39.1597 89.6935 39.3792 89.7089C39.5987 89.7243 46.9955 87.7385 55.8165 85.296C69.9592 81.3801 71.8684 80.7903 71.9697 80.3056C72.1108 79.6302 79.0365 1.50086 79.0294 0.664954L79.0243 0.0662842H39.645H0.266113Z"
                  fill="white"/>
            <path d="M23.2816 85.5158L7.31707 81.0534L7.10845 79.8726C6.923 78.823 0 1.49992 0 0.478267C0 0.108507 4.04215 0.0665283 39.6452 0.0665283C77.2264 0.0665283 79.2903 0.0907681 79.2874 0.532159C79.2749 2.43859 72.109 80.7855 71.9329 80.9415C71.7104 81.1385 40.8108 89.747 39.7783 89.8996C39.4856 89.9429 32.0621 87.9702 23.2816 85.5158ZM49.7117 69.7483C55.0776 68.2684 59.5453 66.9812 59.6399 66.888C59.7346 66.7947 60.3625 60.4324 61.0352 52.7495C61.708 45.0665 62.3264 38.2716 62.4094 37.6497L62.5603 36.5189H50.9697H39.3792V41.4413V46.3636H45.637H51.8948L51.7704 46.9623C51.7019 47.2916 51.4358 50.1212 51.1789 53.2503C50.9068 56.5659 50.5842 59.0674 50.4057 59.2459C50.2372 59.4144 47.6873 60.1951 44.7393 60.9809L39.3792 62.4096V67.4243C39.3792 70.8471 39.4707 72.439 39.6674 72.439C39.8259 72.439 44.3459 71.2282 49.7117 69.7483ZM62.4078 30.3326C62.2319 29.0288 60.6652 11.5418 60.6652 10.8824C60.6652 10.4819 59.7441 10.4435 50.1552 10.4435H39.6452V15.5908V20.7381L44.3681 20.9201C46.9656 21.0202 49.6993 21.1726 50.4429 21.2587L51.795 21.4153L52.1232 25.4416C52.3037 27.656 52.5188 29.9169 52.6012 30.4656L52.7509 31.4634H57.6556H62.5603L62.4078 30.3326Z"
                  fill="#EAEBEC"/>
            <path d="M23.1563 85.2508L7.33251 80.8204L3.81181 41.4413C1.87542 19.7827 0.285478 1.61309 0.278606 1.06431L0.266113 0.0665283H39.6453H79.0244L79.0295 0.665198C79.0366 1.50111 72.1108 79.6305 71.9697 80.3058C71.8684 80.7905 69.9592 81.3804 55.8166 85.2963C46.9955 87.7388 39.5987 89.7245 39.3792 89.7092C39.1597 89.6938 31.8594 87.6875 23.1563 85.2508ZM49.7238 69.9364C55.1938 68.4157 59.7469 67.0458 59.8418 66.8923C59.9366 66.7388 60.5901 60.0515 61.2939 52.0316C61.9977 44.0118 62.6312 37.2406 62.7016 36.9845C62.8226 36.5446 61.8919 36.5189 45.8363 36.5189H28.843L29.5665 28.8692C29.9645 24.6619 30.2996 21.2086 30.3113 21.1953C30.3231 21.182 32.8171 21.1024 35.8537 21.0185C40.8328 20.8809 51.1008 21.2781 51.4443 21.6216C51.5726 21.75 52.4169 30.033 52.4169 31.1637C52.4169 31.7212 52.4921 31.7295 57.5727 31.7295H62.7285L62.607 30.5987C62.5401 29.9767 62.1034 25.1574 61.6364 19.8891L60.7874 10.3104L40.9037 10.2422C25.0851 10.188 21.0195 10.2423 21.0178 10.5083C21.0164 10.6922 20.9007 11.8603 20.7602 13.1042C20.4202 16.1142 17.8271 45.1974 17.8271 46.0006V46.6297H34.7463H51.6654L51.5146 47.6275C51.4317 48.1763 51.1687 50.9601 50.9302 53.8138C50.6917 56.6674 50.4197 59.0759 50.3259 59.166C50.078 59.404 40.1247 62.063 39.504 62.0571C39.2159 62.0543 36.6453 61.413 33.7916 60.6318L28.6031 59.2116L28.4129 56.9783C28.3082 55.75 28.149 53.9967 28.0591 53.0821L27.8956 51.4191H22.8613H17.8271L17.8382 52.4169C17.8591 54.2828 19.0691 66.8517 19.2448 67.0274C19.448 67.2307 38.7838 72.6659 39.3792 72.6872C39.5987 72.6951 44.2538 71.4572 49.7238 69.9364Z"
                  fill="#F0BE25"/>
            <path d="M23.1563 85.2508L7.33251 80.8204L3.81181 41.4413C1.87542 19.7827 0.285478 1.61309 0.278606 1.06431L0.266113 0.0665283H39.6453H79.0244L79.0295 0.665198C79.0366 1.50111 72.1108 79.6305 71.9697 80.3058C71.8684 80.7905 69.9592 81.3804 55.8166 85.2963C46.9955 87.7388 39.5987 89.7245 39.3792 89.7092C39.1597 89.6938 31.8594 87.6875 23.1563 85.2508ZM52.6656 79.3238C59.6264 77.4031 65.4523 75.6969 65.6121 75.5322C65.8608 75.276 71.8726 9.38836 71.8484 7.18405L71.8404 6.45234H55.7428H39.6453V8.31486V10.1774H30.3326C23.0611 10.1774 21.0195 10.2503 21.0178 10.51C21.0164 10.6929 20.9007 11.8603 20.7602 13.1042C20.4202 16.1142 17.8271 45.1974 17.8271 46.0006V46.6297H28.7362H39.6453V54.3459C39.6453 60.3441 39.5712 62.061 39.3127 62.0571C39.1297 62.0543 36.6453 61.413 33.7916 60.6318L28.6031 59.2116L28.4129 56.9783C28.3082 55.75 28.149 53.9967 28.0591 53.0821L27.8956 51.4191H22.8613H17.8271L17.8382 52.4169C17.8701 55.2708 19.1047 66.9205 19.3943 67.0994C19.5703 67.2082 24.1987 68.5381 29.6798 70.0548L39.6453 72.8125V77.8142C39.6453 80.5652 39.7273 82.816 39.8275 82.816C39.9277 82.816 45.7048 81.2445 52.6656 79.3238ZM29.5385 28.9407C29.921 24.7727 30.2861 21.3154 30.3498 21.2577C30.4135 21.2001 32.5311 21.0957 35.0555 21.0259L39.6453 20.8989V28.7089V36.5189H34.2441H28.843L29.5385 28.9407Z"
                  fill="#E4A126"/>
        </g>
        <defs>
            <clipPath id="clip0_5891_190">
                <rect width="79.2239" height="90" fill="white"/>
            </clipPath>
        </defs>
    </g>

    <g id="typescript">
        <g clip-path="url(#clip0_5891_196)">
            <path d="M78.5039 0H8.49609C3.80383 0 0 3.80383 0 8.49609V78.5039C0 83.1962 3.80383 87 8.49609 87H78.5039C83.1962 87 87 83.1962 87 78.5039V8.49609C87 3.80383 83.1962 0 78.5039 0Z"
                  fill="#3178C6"/>
            <path d="M78.5039 0H8.49609C3.80383 0 0 3.80383 0 8.49609V78.5039C0 83.1962 3.80383 87 8.49609 87H78.5039C83.1962 87 87 83.1962 87 78.5039V8.49609C87 3.80383 83.1962 0 78.5039 0Z"
                  fill="#3178C6"/>
            <path fill-rule="evenodd" clip-rule="evenodd"
                  d="M53.8549 69.2303V77.7367C55.2377 78.4456 56.8732 78.9771 58.7614 79.3316C60.6495 79.6861 62.6395 79.8633 64.7316 79.8633C66.7705 79.8633 68.7072 79.6684 70.5422 79.2784C72.3772 78.8886 73.9862 78.2461 75.369 77.3512C76.7518 76.4563 77.8466 75.2866 78.6533 73.8423C79.4599 72.3979 79.8633 70.6126 79.8633 68.486C79.8633 66.9441 79.6329 65.5929 79.1719 64.4322C78.7109 63.2714 78.0461 62.2392 77.1773 61.3353C76.3087 60.4315 75.2671 59.6207 74.0526 58.9029C72.8382 58.1852 71.4686 57.5073 69.9439 56.8695C68.827 56.4086 67.8253 55.9612 66.9389 55.5271C66.0524 55.0927 65.2989 54.6498 64.6784 54.1979C64.0578 53.746 63.5792 53.2675 63.2424 52.7624C62.9056 52.2573 62.737 51.6858 62.737 51.0478C62.737 50.4631 62.8877 49.9358 63.1892 49.4661C63.4906 48.9965 63.9161 48.5934 64.4656 48.2566C65.0153 47.92 65.6889 47.6585 66.4867 47.4724C67.2846 47.2864 68.171 47.1934 69.1461 47.1934C69.8552 47.1934 70.6042 47.2466 71.3932 47.3528C72.1821 47.4592 72.9755 47.6232 73.7735 47.8446C74.5712 48.0661 75.3468 48.3453 76.1004 48.6819C76.8538 49.0187 77.5496 49.4085 78.1879 49.8517V41.9034C76.8937 41.4072 75.4798 41.0395 73.9463 40.8003C72.4127 40.561 70.653 40.4414 68.6675 40.4414C66.6462 40.4414 64.7316 40.6586 62.9233 41.0927C61.115 41.5269 59.5238 42.2047 58.1496 43.1262C56.7757 44.0478 55.6899 45.2218 54.8921 46.6485C54.0943 48.075 53.6953 49.7807 53.6953 51.7655C53.6953 54.2997 54.4267 56.4618 55.8893 58.2518C57.3519 60.0416 59.5724 61.5567 62.551 62.7973C63.721 63.2758 64.8114 63.7453 65.822 64.2062C66.8325 64.667 67.7057 65.1455 68.4413 65.6417C69.1771 66.1378 69.7577 66.6784 70.1833 67.2632C70.6088 67.8479 70.8216 68.5125 70.8216 69.2569C70.8216 69.8063 70.6885 70.3157 70.4226 70.7854C70.1567 71.255 69.7533 71.6625 69.2126 72.0081C68.6719 72.3538 67.9981 72.6239 67.1915 72.8188C66.3847 73.0139 65.4408 73.1113 64.3593 73.1113C62.5154 73.1113 60.6895 72.7879 58.881 72.141C57.0727 71.4943 55.3972 70.524 53.8549 69.2303ZM39.5544 48.2717H50.4668V41.291H20.0508V48.2717H30.9098V79.3535H39.5544V48.2717Z"
                  fill="white"/>
        </g>
        <defs>
            <clipPath id="clip0_5891_196">
                <rect width="87" height="87" fill="white"/>
            </clipPath>
        </defs>
    </g>

    <!--social-->

    <g id="instagram">
        <path d="M15.6516 2.09998H5.34844C3.55687 2.09998 2.1 3.55628 2.1 5.34715V8.77799V15.6528C2.1 17.4437 3.55687 18.9 5.34844 18.9H15.6516C17.4431 18.9 18.9 17.4437 18.9 15.6528V8.77143V5.34058C18.8934 3.55628 17.4366 2.09998 15.6516 2.09998ZM16.5834 4.03516H16.9575V4.40251V6.88217L14.1159 6.88873L14.1094 4.04172L16.5834 4.03516ZM8.09812 8.77143C8.63625 8.03016 9.50906 7.53816 10.4934 7.53816C11.4778 7.53816 12.3506 8.0236 12.8887 8.77143C13.2431 9.25687 13.4466 9.85382 13.4466 10.4967C13.4466 12.1236 12.1209 13.4552 10.4869 13.4552C8.85281 13.4552 7.54031 12.1236 7.54031 10.4967C7.54031 9.85382 7.75031 9.25687 8.09812 8.77143ZM17.2594 15.6462C17.2594 16.5318 16.5375 17.2534 15.6516 17.2534H5.34844C4.4625 17.2534 3.74062 16.5318 3.74062 15.6462V8.77143H6.2475C6.03094 9.30279 5.90625 9.88662 5.90625 10.4967C5.90625 13.0288 7.96687 15.0887 10.5 15.0887C13.0331 15.0887 15.0937 13.0288 15.0937 10.4967C15.0937 9.88662 14.9691 9.30279 14.7525 8.77143H17.2594V15.6462Z"
              fill="#7572D5"/>
    </g>
    <g id="linkedin">
        <path d="M5.80637 7.88635H2.53296V18.3626H5.80637V7.88635Z" fill="#7572D5"/>
        <path d="M4.10079 2.94019C2.89376 2.94019 2.10001 3.72082 2.10001 4.75729C2.10001 5.77408 2.86752 6.57439 4.05487 6.57439H4.08111C5.31437 6.57439 6.08189 5.76752 6.07533 4.75729C6.04909 3.72082 5.30781 2.94019 4.10079 2.94019Z"
              fill="#7572D5"/>
        <path d="M14.7476 7.78796C12.8714 7.78796 11.6972 8.81131 11.4807 9.53291V7.88636H7.8006C7.84652 8.75883 7.8006 18.3626 7.8006 18.3626H11.4807V12.7014C11.4807 12.3799 11.4676 12.065 11.5594 11.842C11.8087 11.2123 12.3532 10.5563 13.3306 10.5563C14.6098 10.5563 15.1871 11.5271 15.1871 12.9441V18.3626H18.9V12.5374C18.9 9.29675 17.0764 7.78796 14.7476 7.78796Z"
              fill="#7572D5"/>
    </g>
    <g id="telegram">
        <path d="M18.9057 4.76449L16.3705 16.7208C16.1791 17.5644 15.6804 17.7745 14.9717 17.3772L11.1085 14.5305L9.24472 16.3235C9.0383 16.5299 8.86608 16.7022 8.46824 16.7022L8.74607 12.7681L15.9054 6.29885C16.2169 6.02162 15.8376 5.86741 15.4218 6.14524L6.57084 11.7186L2.76043 10.5257C1.93174 10.2671 1.91674 9.69701 2.93325 9.29917L17.837 3.55716C18.5271 3.29854 19.1308 3.71018 18.9057 4.76449Z"
              fill="#1F1F20"/>
    </g>
    <g id="vk-logo">
        <path d="M18.1696 13.9941C17.8038 13.5391 17.3881 13.1314 16.9861 12.737C16.8432 12.5968 16.6954 12.4518 16.5529 12.3076C16.1439 11.8932 16.129 11.7375 16.4529 11.2668C16.6769 10.9424 16.9145 10.6175 17.1442 10.3033C17.3526 10.0183 17.568 9.72351 17.7746 9.42777L17.817 9.36697C18.2117 8.80103 18.6199 8.21583 18.8372 7.50988C18.8936 7.32363 18.9528 7.04955 18.8174 6.82036C18.682 6.59137 18.4195 6.52151 18.2337 6.48888C18.1418 6.47273 18.0506 6.47053 17.9659 6.47053L15.3809 6.46861L15.3595 6.46842C14.9687 6.46842 14.7053 6.65927 14.5544 7.05194C14.4103 7.42713 14.252 7.82665 14.0714 8.20653C13.7119 8.96298 13.2554 9.83425 12.5948 10.5609L12.5669 10.5918C12.4889 10.6787 12.4005 10.777 12.3359 10.777C12.326 10.777 12.3152 10.7751 12.303 10.7711C12.1662 10.7159 12.0744 10.3726 12.0785 10.213C12.0786 10.2108 12.0786 10.2086 12.0786 10.2064L12.0768 7.1105C12.0768 7.09976 12.0761 7.08913 12.0747 7.07849C12.009 6.57522 11.8633 6.26195 11.3129 6.15026C11.2983 6.14724 11.2834 6.14575 11.2685 6.14575H8.5806C8.14268 6.14575 7.90138 6.33018 7.67456 6.60623C7.61334 6.68002 7.48589 6.83364 7.54906 7.01998C7.61315 7.20911 7.8212 7.24955 7.88894 7.26268C8.22522 7.32899 8.41477 7.54213 8.46846 7.91453C8.56219 8.56121 8.57371 9.25144 8.50471 10.0868C8.48547 10.3189 8.44742 10.4982 8.38471 10.6514C8.37015 10.6872 8.31849 10.8038 8.26582 10.8039C8.24908 10.8039 8.20067 10.7971 8.11248 10.7341C7.90397 10.5861 7.75142 10.3749 7.57357 10.114C6.96853 9.22796 6.46074 8.25191 6.02097 7.12938C5.85787 6.71615 5.55327 6.48481 5.16289 6.478C4.73395 6.47125 4.34504 6.46799 3.97413 6.46799C3.56886 6.46799 3.19314 6.47187 2.82625 6.47978C2.51217 6.48553 2.29492 6.58308 2.18061 6.76996C2.06611 6.95697 2.07356 7.20264 2.20276 7.50001C3.23702 9.88254 4.17478 11.6149 5.24345 13.1171C5.99225 14.1683 6.74333 14.8959 7.60686 15.4068C8.51664 15.9461 9.5362 16.2083 10.7237 16.2083C10.8583 16.2083 10.9975 16.2048 11.1379 16.198C11.8279 16.1632 12.0839 15.9044 12.1163 15.2082C12.1317 14.8525 12.1692 14.4793 12.338 14.1611C12.4445 13.9606 12.5439 13.9606 12.5765 13.9606C12.6394 13.9606 12.7174 13.9906 12.8011 14.0468C12.9513 14.1484 13.0801 14.2845 13.1857 14.4034C13.285 14.5163 13.3833 14.6304 13.4817 14.7446C13.6939 14.9909 13.9134 15.2456 14.1427 15.4871C14.6445 16.0162 15.1973 16.2488 15.8323 16.1983H18.2023C18.2073 16.1983 18.2124 16.1981 18.2175 16.1978C18.4536 16.1817 18.6582 16.0459 18.7786 15.8254C18.9279 15.5522 18.9249 15.2037 18.7706 14.893C18.5956 14.5415 18.3685 14.2413 18.1696 13.9941Z"
              fill="#7572D5"/>
    </g>
</svg>