<svg width="32" height="32" viewBox="0 0 32 32" fill="none" xmlns="http://www.w3.org/2000/svg">
<path d="M8 28C9.65685 28 11 26.6569 11 25C11 23.3431 9.65685 22 8 22C6.34314 22 5 23.3431 5 25C5 26.6569 6.34314 28 8 28Z" fill="#A677B4"/>
<path d="M9 19C11.7614 19 14 16.7614 14 14C14 11.2386 11.7614 9 9 9C6.23858 9 4 11.2386 4 14C4 16.7614 6.23858 19 9 19Z" fill="#A677B4"/>
<path d="M22 15C25.866 15 29 11.866 29 8C29 4.13401 25.866 1 22 1C18.134 1 15 4.13401 15 8C15 11.866 18.134 15 22 15Z" fill="#A677B4"/>
<path d="M17.5 25C19.433 25 21 23.433 21 21.5C21 19.567 19.433 18 17.5 18C15.567 18 14 19.567 14 21.5C14 23.433 15.567 25 17.5 25Z" fill="#A677B4"/>
<path d="M12 30.0295C12 29.7452 12.0497 29.4779 12.1488 29.2279C12.2482 28.9779 12.3853 28.7647 12.56 28.588C12.7351 28.4116 12.9478 28.2695 13.1985 28.1616C13.4492 28.0538 13.7258 28 14.0284 28C14.3121 28 14.5746 28.0538 14.8157 28.1616C15.0568 28.2695 15.2649 28.4094 15.44 28.5806C15.6151 28.7522 15.7521 28.958 15.8512 29.1985C15.9506 29.4389 16 29.6962 16 29.9705C16 30.2647 15.9503 30.5346 15.8512 30.7795C15.7518 31.0247 15.6126 31.2379 15.4329 31.4194C15.2532 31.6009 15.0405 31.743 14.7944 31.8457C14.5487 31.9488 14.2742 32 13.9716 32C13.6879 32 13.4254 31.9485 13.1843 31.8457C12.9432 31.7426 12.7351 31.6031 12.56 31.4267C12.3849 31.2504 12.2479 31.0442 12.1488 30.8089C12.0494 30.5736 12 30.3141 12 30.0295Z" fill="#A677B4"/>
</svg>
